<svg width="17" height="16" viewBox="0 0 17 16" fill="none" xmlns="http://www.w3.org/2000/svg">
<path d="M9.41667 2H2.08333C1.34695 2 0.75 2.59695 0.75 3.33333V9.33333C0.75 10.0697 1.34695 10.6667 2.08333 10.6667H9.41667C10.153 10.6667 10.75 10.0697 10.75 9.33333V3.33333C10.75 2.59695 10.153 2 9.41667 2Z" stroke="#EAEAEA" stroke-width="1.5"/>
<path d="M10.75 5.33334H14.0833L16.0833 7.33334V10.6667H10.75V5.33334Z" stroke="#EAEAEA" stroke-width="1.5"/>
<path d="M3.75001 14C4.67048 14 5.41668 13.2538 5.41668 12.3333C5.41668 11.4128 4.67048 10.6667 3.75001 10.6667C2.82954 10.6667 2.08334 11.4128 2.08334 12.3333C2.08334 13.2538 2.82954 14 3.75001 14Z" stroke="#EAEAEA" stroke-width="1.5"/>
<path d="M12.4167 14C13.3371 14 14.0833 13.2538 14.0833 12.3333C14.0833 11.4128 13.3371 10.6667 12.4167 10.6667C11.4962 10.6667 10.75 11.4128 10.75 12.3333C10.75 13.2538 11.4962 14 12.4167 14Z" stroke="#EAEAEA" stroke-width="1.5"/>
</svg>
