<svg width="16" height="16" viewBox="0 0 16 16" fill="none" xmlns="http://www.w3.org/2000/svg">
<g clip-path="url(#clip0_0_207)">
<path d="M14.6526 9.49474C14.9263 9.49474 15.1579 9.26316 15.1579 8.98947V7.01053C15.1579 6.73684 14.9263 6.50526 14.6526 6.50526H13.7053C13.5789 5.97895 13.3684 5.47368 13.0947 5.01053L13.7474 4.35789C13.9368 4.16842 13.9368 3.83158 13.7474 3.6421L12.3579 2.25263C12.1684 2.06316 11.8316 2.06316 11.6421 2.25263L10.9895 2.90526C10.5263 2.63158 10.021 2.42105 9.49473 2.27368V1.34737C9.49473 1.07368 9.26315 0.842105 8.98947 0.842105H7.01052C6.73684 0.842105 6.50526 1.07368 6.50526 1.34737V2.27368C5.97894 2.4 5.47368 2.61053 4.98947 2.88421L4.33684 2.23158C4.14736 2.0421 3.81052 2.0421 3.62105 2.23158L2.23158 3.62105C2.0421 3.81053 2.0421 4.14737 2.23158 4.33684L2.88421 4.98947C2.61052 5.45263 2.4 5.95789 2.25263 6.50526H1.34737C1.07368 6.50526 0.842102 6.73684 0.842102 7.01053V8.98947C0.842102 9.26316 1.07368 9.49474 1.34737 9.49474H2.25263C2.4 10.0211 2.61052 10.5263 2.88421 11.0105L2.23158 11.6632C2.0421 11.8526 2.0421 12.1895 2.23158 12.3789L3.62105 13.7684C3.81052 13.9579 4.14736 13.9579 4.33684 13.7684L4.98947 13.1158C5.45263 13.3895 5.95789 13.6 6.50526 13.7263V14.6526C6.50526 14.9263 6.73684 15.1579 7.01052 15.1579H8.98947C9.26315 15.1579 9.49473 14.9263 9.49473 14.6526V13.7263C10.021 13.5789 10.5263 13.3895 10.9895 13.0947L11.6421 13.7474C11.8316 13.9368 12.1684 13.9368 12.3579 13.7474L13.7474 12.3579C13.9368 12.1684 13.9368 11.8316 13.7474 11.6421L13.0947 10.9684C13.3684 10.5053 13.5789 10 13.7053 9.47368H14.6526V9.49474ZM12.821 8.90526C12.6947 9.57895 12.4421 10.2105 12.0421 10.7789C11.8947 10.9895 11.9368 11.2421 12.1053 11.4316L12.6947 12.0211L12 12.7158L11.4105 12.1053C11.2421 11.9368 10.9684 11.9158 10.7579 12.0421C10.1895 12.4421 9.55789 12.6947 8.88421 12.8211C8.65263 12.8632 8.46315 13.0737 8.46315 13.3263V14.1684H7.49473V13.3474C7.49473 13.0947 7.32631 12.8842 7.07368 12.8421C6.37894 12.7158 5.74736 12.4632 5.17894 12.0632C4.96842 11.9158 4.71579 11.9579 4.52631 12.1263L3.93684 12.7158L3.2421 12.0211L3.81052 11.4526C3.97894 11.2842 4 11.0105 3.87368 10.8C3.47368 10.2316 3.22105 9.6 3.09473 8.90526C3.05263 8.67368 2.8421 8.48421 2.58947 8.48421H1.76842V7.51579H2.58947C2.8421 7.51579 3.05263 7.34737 3.09473 7.09474C3.22105 6.4 3.49473 5.76842 3.87368 5.2C4.02105 4.98947 3.97894 4.73684 3.81052 4.54737L3.2421 3.97895L3.93684 3.28421L4.50526 3.85263C4.67368 4.02105 4.94737 4.0421 5.15789 3.91579C5.72631 3.51579 6.35789 3.26316 7.05263 3.13684C7.28421 3.09474 7.47368 2.88421 7.47368 2.63158V1.81053H8.4421V2.63158C8.4421 2.88421 8.61052 3.07368 8.86315 3.13684C9.53684 3.26316 10.1684 3.53684 10.7368 3.91579C10.9263 4.06316 11.2 4.02105 11.3895 3.85263L11.9789 3.26316L12.6737 3.95789L12.1053 4.58947C11.9368 4.75789 11.9158 5.03158 12.0421 5.24211C12.421 5.81053 12.6947 6.4421 12.821 7.11579C12.8632 7.34737 13.0737 7.53684 13.3263 7.53684H14.1684V8.50526H13.3263C13.0737 8.48421 12.8632 8.65263 12.821 8.90526Z" fill="#EAEAEA"/>
<path d="M8.00001 4.21053C5.91006 4.21053 4.21054 5.91005 4.21054 8C4.21054 10.09 5.91006 11.7895 8.00001 11.7895C10.09 11.7895 11.7895 10.09 11.7895 8C11.7895 5.91005 10.09 4.21053 8.00001 4.21053ZM8.00001 10.6641C6.53016 10.6641 5.31293 9.46986 5.31293 7.97703C5.31293 6.48421 6.53016 5.31292 8.00001 5.31292C9.46987 5.31292 10.6871 6.50718 10.6871 8C10.6871 9.49282 9.49284 10.6641 8.00001 10.6641Z" fill="#EAEAEA"/>
</g>
<defs>
<clipPath id="clip0_0_207">
<rect width="16" height="16" fill="white"/>
</clipPath>
</defs>
</svg>
