<svg width="16" height="17" viewBox="0 0 16 17" fill="none" xmlns="http://www.w3.org/2000/svg">
<path d="M14 6.75C14 11.4167 8 15.4167 8 15.4167C8 15.4167 2 11.4167 2 6.75C2 5.1587 2.63214 3.63258 3.75736 2.50736C4.88258 1.38214 6.4087 0.75 8 0.75C9.5913 0.75 11.1174 1.38214 12.2426 2.50736C13.3679 3.63258 14 5.1587 14 6.75Z" stroke="#EAEAEA" stroke-width="1.5"/>
<path d="M8 8.75C9.10457 8.75 10 7.85457 10 6.75C10 5.64543 9.10457 4.75 8 4.75C6.89543 4.75 6 5.64543 6 6.75C6 7.85457 6.89543 8.75 8 8.75Z" stroke="#EAEAEA" stroke-width="1.5"/>
</svg>
