<svg width="15" height="12" viewBox="0 0 15 12" fill="none" xmlns="http://www.w3.org/2000/svg">
<path d="M0.75 2H14.25C14.4489 2 14.6397 1.89464 14.7803 1.70711C14.921 1.51957 15 1.26522 15 1C15 0.734784 14.921 0.48043 14.7803 0.292893C14.6397 0.105357 14.4489 0 14.25 0H0.75C0.551088 0 0.360322 0.105357 0.21967 0.292893C0.0790176 0.48043 0 0.734784 0 1C0 1.26522 0.0790176 1.51957 0.21967 1.70711C0.360322 1.89464 0.551088 2 0.75 2ZM14.25 10H0.75C0.551088 10 0.360322 10.1054 0.21967 10.2929C0.0790176 10.4804 0 10.7348 0 11C0 11.2652 0.0790176 11.5196 0.21967 11.7071C0.360322 11.8946 0.551088 12 0.75 12H14.25C14.4489 12 14.6397 11.8946 14.7803 11.7071C14.921 11.5196 15 11.2652 15 11C15 10.7348 14.921 10.4804 14.7803 10.2929C14.6397 10.1054 14.4489 10 14.25 10ZM14.25 5H0.75C0.551088 5 0.360322 5.10536 0.21967 5.29289C0.0790176 5.48043 0 5.73478 0 6C0 6.26522 0.0790176 6.51957 0.21967 6.70711C0.360322 6.89464 0.551088 7 0.75 7H14.25C14.4489 7 14.6397 6.89464 14.7803 6.70711C14.921 6.51957 15 6.26522 15 6C15 5.73478 14.921 5.48043 14.7803 5.29289C14.6397 5.10536 14.4489 5 14.25 5Z" fill="#266599"/>
</svg>
