<svg width="43" height="43" viewBox="0 0 43 43" fill="none" xmlns="http://www.w3.org/2000/svg">
<rect x="1" y="1" width="41" height="41" rx="9.67114" stroke="#5BB3FA" stroke-width="2"/>
<path d="M23.2916 12.0377H16.125C15.6498 12.0377 15.1941 12.2264 14.8581 12.5624C14.5221 12.8984 14.3333 13.3542 14.3333 13.8293V28.1627C14.3333 28.6379 14.5221 29.0936 14.8581 29.4296C15.1941 29.7656 15.6498 29.9543 16.125 29.9543H26.875C27.3501 29.9543 27.8059 29.7656 28.1419 29.4296C28.4779 29.0936 28.6666 28.6379 28.6666 28.1627V17.4127L23.2916 12.0377Z" stroke="#5BB3FA" stroke-width="1.77852"/>
<path d="M23.2916 12.0377V17.4127H28.6666" stroke="#5BB3FA" stroke-width="1.77852"/>
<path d="M25.0833 21.8919H17.9166" stroke="#5BB3FA" stroke-width="1.77852"/>
<path d="M25.0833 25.4752H17.9166" stroke="#5BB3FA" stroke-width="1.77852"/>
</svg>
