<svg width="43" height="43" viewBox="0 0 43 43" fill="none" xmlns="http://www.w3.org/2000/svg">
<rect x="1" y="1" width="41" height="41" rx="9.67114" stroke="#1F77B4" stroke-width="2"/>
<path d="M23.2916 12.9341H13.4374C12.4479 12.9341 11.6457 13.7362 11.6457 14.7257V22.7882C11.6457 23.7778 12.4479 24.5799 13.4374 24.5799H23.2916C24.2811 24.5799 25.0832 23.7778 25.0832 22.7882V14.7257C25.0832 13.7362 24.2811 12.9341 23.2916 12.9341Z" stroke="#1F77B4" stroke-width="1.77852"/>
<path d="M25.0833 17.4133H29.5625L32.25 20.1008V24.5799H25.0833V17.4133Z" stroke="#1F77B4" stroke-width="1.77852"/>
<path d="M15.677 29.0591C16.9139 29.0591 17.9166 28.0564 17.9166 26.8195C17.9166 25.5826 16.9139 24.5799 15.677 24.5799C14.4401 24.5799 13.4374 25.5826 13.4374 26.8195C13.4374 28.0564 14.4401 29.0591 15.677 29.0591Z" stroke="#1F77B4" stroke-width="1.77852"/>
<path d="M27.3229 29.0591C28.5598 29.0591 29.5625 28.0564 29.5625 26.8195C29.5625 25.5826 28.5598 24.5799 27.3229 24.5799C26.086 24.5799 25.0833 25.5826 25.0833 26.8195C25.0833 28.0564 26.086 29.0591 27.3229 29.0591Z" stroke="#1F77B4" stroke-width="1.77852"/>
</svg>
